<?xml version="1.0" encoding="utf-8"?>
<!-- Generator: Adobe Illustrator 19.0.0, SVG Export Plug-In . SVG Version: 6.00 Build 0)  -->
<svg version="1.1" id="Capa_1" xmlns="http://www.w3.org/2000/svg" xmlns:xlink="http://www.w3.org/1999/xlink" x="0px" y="0px"
	 viewBox="-472 274.4 13.5 13.5" style="enable-background:new -472 274.4 13.5 13.5;" xml:space="preserve">
<style type="text/css">
	.st0{fill:#542437;}
</style>
<g id="XMLID_27_">
	<path id="XMLID_30_" class="st0" d="M-465.3,286.3c-2.8,0-5-2.2-5-5c0-2.8,2.2-5,5-5c2.5,0,4.6,1.9,4.9,4.3h1.8
		c-0.3-3-3.2-6.2-6.7-6.2c-3.7,0-6.7,3.1-6.7,6.8c0,3.7,3,6.7,6.8,6.7c3.6,0,6.5-2.3,6.7-6.3h-1.8
		C-460.5,284.2-462.6,286.3-465.3,286.3z"/>
	<path id="XMLID_33_" class="st0" d="M-465.3,280.4c0.2,0,0.4,0.2,0.6,0.2h3.6c-0.3-2-2.1-3.6-4.2-3.6c-2.3,0-4.3,1.9-4.3,4.3
		c0,2.3,1.9,4.3,4.3,4.3c2.2,0,4-1.7,4.2-3.9h-3.6c-0.1-0.1-0.3,0.2-0.6,0.2c-0.4,0-0.7-0.3-0.7-0.7
		C-466,280.8-465.7,280.4-465.3,280.4z"/>
</g>
</svg>
