<?xml version="1.0" encoding="utf-8"?>
<!-- Generator: Adobe Illustrator 19.0.0, SVG Export Plug-In . SVG Version: 6.00 Build 0)  -->
<svg version="1.1" id="Capa_1" xmlns="http://www.w3.org/2000/svg" xmlns:xlink="http://www.w3.org/1999/xlink" x="0px" y="0px"
	 viewBox="0 0 13.5 13.5" style="enable-background:new 0 0 13.5 13.5;" xml:space="preserve">
<style type="text/css">
	.st0{fill:#542437;}
</style>
<g id="XMLID_27_">
	<path id="XMLID_30_" class="st0" d="M6.7,0C3.2,0,0.3,3.2,0,6.2h1.8c0.3-2.4,2.4-4.3,4.9-4.3c2.8,0,5,2.2,5,5s-2.2,5-5,5
		c-2.6,0-4.8-2.1-5-4.7H0c0.3,4,3.2,6.3,6.7,6.3c3.7,0,6.8-3,6.8-6.8C13.5,3,10.5,0,6.7,0z"/>
	<path id="XMLID_33_" class="st0" d="M6.7,7.5c-0.2,0-0.4-0.3-0.6-0.3H2.5c0.2,2.2,2,3.9,4.2,3.9c2.3,0,4.3-1.9,4.3-4.3
		c0-2.3-1.9-4.3-4.3-4.3c-2.1,0-3.9,1.6-4.2,3.6h3.6C6.3,6.2,6.5,6,6.7,6c0.4,0,0.8,0.4,0.8,0.8C7.5,7.2,7.1,7.5,6.7,7.5z"/>
</g>
</svg>
