<?xml version="1.0" encoding="utf-8"?>
<!-- Generator: Adobe Illustrator 19.0.0, SVG Export Plug-In . SVG Version: 6.00 Build 0)  -->
<svg version="1.1" id="Capa_1" xmlns="http://www.w3.org/2000/svg" xmlns:xlink="http://www.w3.org/1999/xlink" x="0px" y="0px"
	 viewBox="0 0 98 260" style="enable-background:new 0 0 98 260;" xml:space="preserve">
<style type="text/css">
	.st0{fill:#542437;}
	.st1{fill:#C02942;}
	.st2{fill:#D95B43;}
</style>
<path id="XMLID_38_" class="st0" d="M79.9,0c3.9,2.1,6.6,6.2,6.6,11c0,6.9-5.6,12.5-12.5,12.5S61.5,17.9,61.5,11
	c0-4.8,2.7-8.9,6.6-11H29.9c3.9,2.1,6.6,6.2,6.6,11c0,6.9-5.6,12.5-12.5,12.5S11.5,17.9,11.5,11c0-4.8,2.7-8.9,6.6-11H0v30h98V0
	H79.9z"/>
<rect id="XMLID_60_" x="46" class="st1" width="6" height="30"/>
<rect id="XMLID_58_" y="29" class="st2" width="98" height="202"/>
<path id="XMLID_103_" class="st1" d="M21.3,198c5.9,9,16.1,15,27.7,15s21.8-6,27.7-15H21.3z"/>
<path id="XMLID_49_" class="st2" d="M24,1c-5.5,0-10,4.5-10,10c0,5.5,4.5,10,10,10s10-4.5,10-10C34,5.5,29.5,1,24,1z M31,13h-4.8
	c-0.1,0.1-0.1,0.2-0.2,0.2V18h-4v-4.8c-0.1-0.1-0.2-0.1-0.2-0.2H17V9h4.8c0.1-0.1,0.1-0.2,0.2-0.2V4h4v4.8c0.1,0.1,0.2,0.1,0.2,0.2
	H31V13z"/>
<path id="XMLID_40_" class="st0" d="M31,9h-4.8c-0.1-0.1-0.1-0.2-0.2-0.2V4h-4v4.8c-0.1,0.1-0.2,0.1-0.2,0.2H17v4h4.8
	c0.1,0.1,0.1,0.2,0.2,0.2V18h4v-4.8c0.1-0.1,0.2-0.1,0.2-0.2H31V9z"/>
<path id="XMLID_35_" class="st2" d="M74,1c-5.5,0-10,4.5-10,10c0,5.5,4.5,10,10,10s10-4.5,10-10C84,5.5,79.5,1,74,1z M81,13h-4.8
	c-0.1,0.1-0.1,0.2-0.2,0.2V18h-4v-4.8c-0.1-0.1-0.2-0.1-0.2-0.2H67V9h4.8c0.1-0.1,0.1-0.2,0.2-0.2V4h4v4.8c0.1,0.1,0.2,0.1,0.2,0.2
	H81V13z"/>
<path id="XMLID_1_" class="st0" d="M81,9h-4.8c-0.1-0.1-0.1-0.2-0.2-0.2V4h-4v4.8c-0.1,0.1-0.2,0.1-0.2,0.2H67v4h4.8
	c0.1,0.1,0.1,0.2,0.2,0.2V18h4v-4.8c0.1-0.1,0.2-0.1,0.2-0.2H81V9z"/>
<path id="XMLID_89_" class="st0" d="M18.1,260c-3.9-2-6.6-6.2-6.6-11c0-6.9,5.6-12.5,12.5-12.5s12.5,5.6,12.5,12.5
	c0,4.8-2.7,9-6.6,11h38.1c-3.9-2-6.6-6.2-6.6-11c0-6.9,5.6-12.5,12.5-12.5s12.5,5.6,12.5,12.5c0,4.8-2.7,8.9-6.6,11H98v-30H0v30
	H18.1z"/>
<rect id="XMLID_88_" x="46" y="230" class="st1" width="6" height="30"/>
<path id="XMLID_85_" class="st2" d="M74,259c5.5,0,10-4.5,10-10c0-5.5-4.5-10-10-10s-10,4.5-10,10C64,254.5,68.5,259,74,259z
	 M67,247h4.8c0.1-0.1,0.1-0.2,0.2-0.2V242h4v4.8c0,0.1,0.2,0.1,0.2,0.2H81v4h-4.8c-0.1,0.1-0.1,0.2-0.2,0.2v4.8h-4v-4.8
	c-0.1-0.1-0.2-0.1-0.2-0.2H67V247z"/>
<path id="XMLID_84_" class="st0" d="M67,251h4.8c0.1,0.1,0.1,0.2,0.2,0.2v4.8h4v-4.8c0.1-0.1,0.2-0.1,0.2-0.2H81v-4h-4.8
	c-0.1-0.1-0.1-0.2-0.2-0.2V242h-4v4.8c0,0.1-0.2,0.1-0.2,0.2H67V251z"/>
<path id="XMLID_63_" class="st2" d="M24,259c5.5,0,10-4.5,10-10c0-5.5-4.5-10-10-10s-10,4.5-10,10C14,254.5,18.5,259,24,259z
	 M17,247h4.8c0.1,0,0.1-0.2,0.2-0.2V242h4v4.8c0,0.1,0.2,0.2,0.2,0.2H31v4h-4.8c-0.1,0-0.1,0.2-0.2,0.2v4.8h-4v-4.8
	c-0.1-0.1-0.2-0.2-0.2-0.2H17V247z"/>
<path id="XMLID_34_" class="st0" d="M17,251h4.8c0.1,0,0.1,0.2,0.2,0.2v4.8h4v-4.8c0.1-0.1,0.2-0.2,0.2-0.2H31v-4h-4.8
	c-0.1,0-0.1-0.2-0.2-0.2V242h-4v4.8c0,0.1-0.2,0.2-0.2,0.2H17V251z"/>
<rect id="XMLID_56_" x="7" y="114" class="st0" width="84" height="84"/>
</svg>
