<?xml version="1.0" encoding="utf-8"?>
<!-- Generator: Adobe Illustrator 19.0.0, SVG Export Plug-In . SVG Version: 6.00 Build 0)  -->
<svg version="1.1" id="Capa_1" xmlns="http://www.w3.org/2000/svg" xmlns:xlink="http://www.w3.org/1999/xlink" x="0px" y="0px"
	 viewBox="0 0 150 91" style="enable-background:new 0 0 150 91;" xml:space="preserve">
<style type="text/css">
	.st0{fill:#542437;stroke:#53777A;stroke-miterlimit:10;}
</style>
<g id="XMLID_14_">
	<path id="XMLID_15_" class="st0" d="M71.7,43.5h-2.2v10h2.4c2.4,0,4-2.2,4-5C75.9,45.7,74.2,43.5,71.7,43.5z"/>
	<path id="XMLID_18_" class="st0" d="M117.8,0.5l-12.3,21h-60l-12.3-21H0.5v90h149v-90H117.8z M62.1,52.1c0,3.8-3.3,5.5-7.3,5.5
		c-3,0-6.3-1.1-8.5-2.8l2-4c1.8,1.5,4.8,2.7,6.6,2.7c1.1,0,1.8-0.4,1.8-1.2c0-2.7-9.2-1-9.2-7.2c0-3.4,2.9-5.6,7.3-5.6
		c2.7,0,5.5,0.8,7.4,2l-1.9,4c-1.8-1-4.4-2-5.9-2c-0.9,0-1.5,0.3-1.5,1C52.9,47.3,62.1,45.7,62.1,52.1z M71.6,57.5h-7.1v-18h7.3
		c5.7,0,9.5,3.7,9.5,9C81.3,53.8,77.4,57.5,71.6,57.5z M92.2,57.8c-3.8,0-7.7-1.3-10.3-3.2l3-5.7c2,2.2,4.3,3.3,6.7,3.3
		c2.4,0,3.6-1.1,3.6-2.9c0-1.8-1.3-2.9-3.6-2.9h-4.1V43l4.9-5.5h-8.9v-5h18v4l-6.4,5.8l1.2,0.2c3.7,0.6,6.3,3.1,6.3,6.9
		C102.6,54.4,98.5,57.8,92.2,57.8z"/>
</g>
</svg>
