<?xml version="1.0" encoding="utf-8"?>
<!-- Generator: Adobe Illustrator 19.0.0, SVG Export Plug-In . SVG Version: 6.00 Build 0)  -->
<svg version="1.1" id="Capa_1" xmlns="http://www.w3.org/2000/svg" xmlns:xlink="http://www.w3.org/1999/xlink" x="0px" y="0px"
	 viewBox="0 0 150 91" style="enable-background:new 0 0 150 91;" xml:space="preserve">
<style type="text/css">
	.st0{fill:#C02942;stroke:#542437;stroke-miterlimit:10;}
</style>
<g id="XMLID_14_">
	<polygon id="XMLID_17_" class="st0" points="108.5,56.5 105.5,51.5 99.5,51.5 96.5,56.5 99.5,61.5 105.5,61.5 	"/>
	<polygon id="XMLID_16_" class="st0" points="93.5,71.5 84.5,56.5 66.5,56.5 57.5,71.5 66.5,86.5 84.5,86.5 	"/>
	<polygon id="XMLID_15_" class="st0" points="0.5,0.5 0.5,90.5 27.2,90.5 15.5,71.3 45.5,21.5 105.5,21.5 114.5,36.5 108.5,36.5 
		105.5,41.5 108.5,46.5 114.5,46.5 117.5,41.5 123.5,51.5 117.5,51.5 114.5,56.5 117.5,61.5 123.5,61.5 126.5,56.3 135.5,71.1 
		123.8,90.5 149.5,90.5 149.5,0.5 	"/>
</g>
</svg>
