<?xml version="1.0" encoding="utf-8"?>
<!-- Generator: Adobe Illustrator 19.0.0, SVG Export Plug-In . SVG Version: 6.00 Build 0)  -->
<svg version="1.1" id="Capa_1" xmlns="http://www.w3.org/2000/svg" xmlns:xlink="http://www.w3.org/1999/xlink" x="0px" y="0px"
	 viewBox="0 0 367 580" style="enable-background:new 0 0 367 580;" xml:space="preserve">
<style type="text/css">
	.st0{fill:#542437;}
</style>
<g id="XMLID_27_">
	<rect id="XMLID_291_" x="342" y="291" class="st0" width="3" height="278"/>
	<rect id="XMLID_292_" x="334" y="295" class="st0" width="3" height="285"/>
	<rect id="XMLID_699_" x="278" y="292" class="st0" width="3" height="9"/>
	<rect id="XMLID_700_" x="278" y="292" class="st0" width="59" height="3"/>
	<rect id="XMLID_701_" x="139" y="288" class="st0" width="3" height="13"/>
	<rect id="XMLID_702_" y="287" class="st0" width="3" height="14"/>
	<rect id="XMLID_703_" x="139" y="288" class="st0" width="206" height="3"/>
	<rect id="XMLID_704_" y="284" class="st0" width="352" height="3"/>
	<rect id="XMLID_705_" x="278" y="8" class="st0" width="3" height="9"/>
	<rect id="XMLID_706_" x="278" y="8" class="st0" width="77" height="3"/>
	<rect id="XMLID_707_" x="139" y="4" class="st0" width="3" height="13"/>
	<rect id="XMLID_708_" y="3" class="st0" width="3" height="14"/>
	<rect id="XMLID_709_" x="139" y="4" class="st0" width="221" height="3"/>
	<rect id="XMLID_710_" y="0" class="st0" width="364" height="3"/>
	<rect id="XMLID_719_" x="364" y="0" class="st0" width="3" height="547"/>
	<rect id="XMLID_720_" x="360" y="4" class="st0" width="3" height="547"/>
	<rect id="XMLID_725_" x="355" y="8" class="st0" width="3" height="548"/>
	<rect id="XMLID_726_" x="349" y="287" class="st0" width="3" height="275"/>
</g>
</svg>
