<?xml version="1.0" encoding="utf-8"?>
<!-- Generator: Adobe Illustrator 19.0.0, SVG Export Plug-In . SVG Version: 6.00 Build 0)  -->
<svg version="1.1" id="Capa_1" xmlns="http://www.w3.org/2000/svg" xmlns:xlink="http://www.w3.org/1999/xlink" x="0px" y="0px"
	 viewBox="0 0 8 4" style="enable-background:new 0 0 8 4;" xml:space="preserve">
<style type="text/css">
	.st0{fill:#542437;}
</style>
<g id="XMLID_33_">
	<g id="XMLID_35_">
		<path id="XMLID_29_" class="st0" d="M0.5,4C0.3,4,0.2,4,0.1,3.9c-0.2-0.2-0.2-0.4,0-0.6l3.8-3.2C4.1,0,4.4,0,4.6,0.1
			c0.2,0.2,0.2,0.4,0,0.6L0.8,3.9C0.7,4,0.6,4,0.5,4z"/>
	</g>
	<g id="XMLID_34_">
		<path id="XMLID_28_" class="st0" d="M7.5,4C7.4,4,7.3,4,7.2,3.9L3.9,0.7c-0.2-0.2-0.2-0.4,0-0.6C4.1,0,4.4,0,4.5,0.1l3.3,3.2
			C8,3.4,8,3.7,7.9,3.9C7.8,4,7.7,4,7.5,4z"/>
	</g>
</g>
</svg>
