<?xml version="1.0" encoding="utf-8"?>
<!-- Generator: Adobe Illustrator 19.0.0, SVG Export Plug-In . SVG Version: 6.00 Build 0)  -->
<svg version="1.1" id="Capa_1" xmlns="http://www.w3.org/2000/svg" xmlns:xlink="http://www.w3.org/1999/xlink" x="0px" y="0px"
	 viewBox="0 0 22 22" style="enable-background:new 0 0 22 22;" xml:space="preserve">
<style type="text/css">
	.st0{fill:none;stroke:#542437;stroke-miterlimit:10;stroke-dasharray:1;}
	.st1{fill:#542437;}
</style>
<polyline id="XMLID_801_" class="st0" points="10.5,16 10.5,8.5 16,8.5 "/>
<path id="XMLID_8_" class="st1" d="M9.5,4C9.2,4,9,4.2,9,4.5S9.2,5,9.5,5h2C11.8,5,12,4.8,12,4.5S11.8,4,11.5,4H9.5z"/>
<path id="XMLID_19_" class="st1" d="M0,0v22h22V0H0z M14,19h-1v-1h1V19z M16,19h-1v-1h1V19z M16,16c0,0.6-0.4,1-1,1h-4v1h1v1h-1v-1
	h-1v-1H6c-0.6,0-1-0.4-1-1V5c0-0.6,0.4-1,1-1h2.1c0.2-0.6,0.8-1,1.4-1h2c0.7,0,1.2,0.4,1.4,1H15c0.6,0,1,0.4,1,1V16z M18,19h-1v-1h1
	V19z M18,17h-1v-1h1V17z M18,15h-1v-1h1V15z M18,13h-1v-1h1V13z M18,11h-1v-1h1V11z M18,9h-1V8h1V9z"/>
</svg>
