<?xml version="1.0" encoding="utf-8"?>
<!-- Generator: Adobe Illustrator 19.0.0, SVG Export Plug-In . SVG Version: 6.00 Build 0)  -->
<svg version="1.1" id="Capa_1" xmlns="http://www.w3.org/2000/svg" xmlns:xlink="http://www.w3.org/1999/xlink" x="0px" y="0px"
	 viewBox="0 0 24 24" style="enable-background:new 0 0 24 24;" xml:space="preserve">
<style type="text/css">
	.st0{fill:#542437;}
	.st1{fill:#D95B43;}
</style>
<g id="XMLID_119_">
	<path id="XMLID_127_" class="st0" d="M12,0C5.4,0,0,5.4,0,12c0,6.6,5.4,12,12,12s12-5.4,12-12C24,5.4,18.6,0,12,0z M19,14h-3.6
		c-0.3,0.6-0.8,1.1-1.4,1.4V19h-4v-3.6c-0.6-0.3-1.1-0.8-1.4-1.4H5v-4h3.6C8.9,9.4,9.4,8.9,10,8.6V5h4v3.6c0.6,0.3,1.1,0.8,1.4,1.4
		H19V14z"/>
	<path id="XMLID_132_" class="st1" d="M19,10h-3.6c-0.3-0.6-0.8-1.1-1.4-1.4V5h-4v3.6C9.4,8.9,8.9,9.4,8.6,10H5v4h3.6
		c0.3,0.6,0.8,1.1,1.4,1.4V19h4v-3.6c0.6-0.3,1.1-0.8,1.4-1.4H19V10z"/>
</g>
</svg>
