<?xml version="1.0" encoding="utf-8"?>
<!-- Generator: Adobe Illustrator 19.0.0, SVG Export Plug-In . SVG Version: 6.00 Build 0)  -->
<svg version="1.1" id="Capa_1" xmlns="http://www.w3.org/2000/svg" xmlns:xlink="http://www.w3.org/1999/xlink" x="0px" y="0px"
	 viewBox="0 0 14 14" style="enable-background:new 0 0 14 14;" xml:space="preserve">
<style type="text/css">
	.st0{fill:#542437;}
</style>
<g id="XMLID_62_">
	<polygon id="XMLID_28_" class="st0" points="3,0 3,6 4,6 4,1 10,1 10,6 11,6 11,0 	"/>
	<rect id="XMLID_66_" x="5.1" y="2.6" class="st0" width="1.2" height="1.2"/>
	<rect id="XMLID_65_" x="7.7" y="2.6" class="st0" width="1.2" height="1.2"/>
	<path id="XMLID_33_" class="st0" d="M12,6H2C0.9,6,0,6.6,0,7.7V14h14V7.7C14,6.6,13.1,6,12,6z M9.6,11.7l-0.7,0.7L7,10.5l-1.9,1.9
		l-0.7-0.7l1.9-1.9L4.4,7.9l0.7-0.7L7,9.1l1.9-1.9l0.7,0.7L7.7,9.8L9.6,11.7z"/>
</g>
</svg>
